<svg width="50" height="50" viewBox="0 0 50 50" fill="none" xmlns="http://www.w3.org/2000/svg">
<rect x="0.5" y="0.5" width="49" height="49" rx="24.5" fill="#202020"/>
<rect x="0.5" y="0.5" width="49" height="49" rx="24.5" stroke="white"/>
<path d="M20.8176 18.5C21.3939 18.5 21.9264 18.5453 22.4151 18.6811C22.9026 18.7716 23.3039 18.9605 23.6601 19.1869C24.0164 19.4132 24.2814 19.7379 24.4614 20.1531C24.6364 20.567 24.7314 21.0728 24.7314 21.6239C24.7314 22.2654 24.5989 22.8165 24.2864 23.2304C24.0177 23.6443 23.5789 24.0143 23.0401 24.2872C23.7976 24.5149 24.3739 24.9288 24.7252 25.4798C25.0764 26.0309 25.3014 26.7177 25.3014 27.5016C25.3014 28.1432 25.1702 28.6943 24.9452 29.1547C24.7215 29.6188 24.3846 30.0143 23.9677 30.3021C23.5676 30.5802 23.0789 30.8066 22.5464 30.9437C22.0248 31.0866 21.4883 31.1631 20.9488 31.1713L15 31.1804V18.5H20.8176ZM20.4613 23.6456C20.9488 23.6456 21.3489 23.5098 21.6576 23.277C21.9651 23.0441 22.1014 22.6341 22.1014 22.1296C22.1014 21.8502 22.0576 21.5786 21.9701 21.3962C21.8746 21.2119 21.7374 21.0544 21.5701 20.937C21.389 20.8341 21.1951 20.7575 20.9939 20.7093C20.7738 20.6641 20.5488 20.6641 20.2851 20.6641H17.7125V23.6521C17.7125 23.6456 20.4613 23.6456 20.4613 23.6456ZM20.5926 29.0694C20.8613 29.0694 21.1251 29.0241 21.3501 28.9788C21.5701 28.9336 21.7951 28.8417 21.9701 28.6994C22.1451 28.5571 22.2826 28.4213 22.4151 28.195C22.5026 27.9673 22.5901 27.6892 22.5901 27.3658C22.5901 26.7242 22.4151 26.2637 22.0576 25.9403C21.7014 25.6622 21.2126 25.5264 20.6363 25.5264H17.7125V29.0629H20.5938L20.5926 29.0694ZM29.1652 29.0241C29.5219 29.3923 30.0544 29.576 30.7628 29.5751C31.2503 29.5751 31.6953 29.438 32.0528 29.2052C32.4078 28.9292 32.6286 28.6533 32.7153 28.3773H34.8903C34.5328 29.4781 34.0003 30.262 33.2928 30.7678C32.5853 31.227 31.739 31.4999 30.7178 31.4999C30.0646 31.504 29.4167 31.3789 28.809 31.1312C28.2611 30.922 27.7725 30.5743 27.3877 30.1197C26.9762 29.6969 26.6707 29.1765 26.4977 28.6037C26.2789 28.0074 26.1852 27.3658 26.1852 26.6272C26.1852 25.9403 26.2727 25.2923 26.4977 24.696C26.7227 24.101 27.0302 23.5939 27.4315 23.1347C27.8315 22.7208 28.3202 22.3508 28.8527 22.1232C29.4463 21.878 30.0799 21.7528 30.719 21.7545C31.4765 21.7545 32.1403 21.8903 32.7165 22.2137C33.2916 22.5371 33.7378 22.9019 34.0941 23.4529C34.4503 23.9574 34.7141 24.5537 34.8953 25.1966C34.9828 25.8382 35.0266 26.4849 34.9828 27.2183H28.5452C28.5452 27.9686 28.8077 28.6542 29.1652 29.0241ZM31.9653 24.1967C31.6528 23.8733 31.1628 23.6909 30.5865 23.6909C30.1865 23.6909 29.879 23.7815 29.6102 23.9186C29.3415 24.0557 29.1652 24.2419 28.9902 24.423C28.827 24.6007 28.7183 24.8244 28.6777 25.0659C28.6327 25.2923 28.5902 25.4798 28.5902 25.6609H32.5853C32.4978 24.9805 32.274 24.5201 31.9653 24.1967ZM28.0565 19.3744H33.0291V20.6123H28.0565V19.3744Z" fill="white"/>
</svg>