<svg width="50" height="50" viewBox="0 0 50 50" fill="none" xmlns="http://www.w3.org/2000/svg">
<rect x="0.5" y="0.5" width="49.0013" height="49" rx="24.5" fill="#202020"/>
<rect x="0.5" y="0.5" width="49.0013" height="49" rx="24.5" stroke="white"/>
<path d="M18.5005 18.3332C18.5005 17.4492 18.8429 16.6014 19.4523 15.9763C20.0617 15.3512 20.8883 15 21.7501 15H28.2504C29.1124 15 29.939 15.3512 30.5485 15.9764C31.1581 16.6016 31.5005 17.4495 31.5005 18.3337C31.5005 19.2178 31.1581 20.0657 30.5485 20.6909C29.939 21.3161 29.1124 21.6673 28.2504 21.6673H25.0007V31.6678C25.0005 32.327 24.8098 32.9713 24.4527 33.5193C24.0955 34.0672 23.588 34.4943 22.9942 34.7465C22.4005 34.9986 21.7472 35.0645 21.1169 34.9359C20.4866 34.8073 19.9077 34.4898 19.4533 34.0237C18.9988 33.5576 18.6894 32.9638 18.564 32.3173C18.4385 31.6709 18.5028 31.0008 18.7486 30.3917C18.9945 29.7827 19.4108 29.2622 19.9451 28.8958C20.4793 28.5295 21.1075 28.3339 21.7501 28.3337C20.8883 28.3337 20.0617 27.9825 19.4523 27.3574C18.8429 26.7323 18.5005 25.8845 18.5005 25.0005C18.5005 24.1165 18.8429 23.2687 19.4523 22.6436C20.0617 22.0185 20.8883 21.6673 21.7501 21.6673C21.3233 21.6673 20.9006 21.5811 20.5063 21.4135C20.112 21.2459 19.7537 21.0003 19.4519 20.6907C19.1502 20.3811 18.9108 20.0135 18.7476 19.609C18.5843 19.2045 18.5004 18.771 18.5005 18.3332ZM25.0007 25.0005C25.0007 25.8845 25.3431 26.7323 25.9525 27.3574C26.562 27.9825 27.3885 28.3337 28.2504 28.3337C29.1122 28.3337 29.9388 27.9825 30.5482 27.3574C31.1576 26.7323 31.5 25.8845 31.5 25.0005C31.5 24.1165 31.1576 23.2687 30.5482 22.6436C29.9388 22.0185 29.1122 21.6673 28.2504 21.6673C27.3885 21.6673 26.562 22.0185 25.9525 22.6436C25.3431 23.2687 25.0007 24.1165 25.0007 25.0005Z" fill="white"/>
</svg>